<?xml version="1.0" standalone="no"?>
<!DOCTYPE svg PUBLIC "-//W3C//DTD SVG 20010904//EN"
 "http://www.w3.org/TR/2001/REC-SVG-20010904/DTD/svg10.dtd">
<svg version="1.0" xmlns="http://www.w3.org/2000/svg"
 width="500.000000pt" height="500.000000pt" viewBox="0 0 500.000000 500.000000"
 preserveAspectRatio="xMidYMid meet">

<g transform="translate(0.000000,500.000000) scale(0.100000,-0.100000)"
fill="#000000" stroke="none">
<path d="M3455 3669 c-60 -16 -132 -34 -160 -40 -27 -6 -95 -21 -150 -35 -55
-13 -146 -31 -202 -39 -150 -22 -737 -146 -744 -157 -3 -5 -14 -54 -24 -109
-12 -67 -24 -103 -34 -108 -9 -5 -45 -14 -81 -20 -108 -20 -109 -20 -68 -45
19 -11 47 -32 61 -46 14 -14 31 -26 36 -26 6 -1 16 -2 21 -3 6 0 10 -8 10 -17
0 -9 -5 -14 -12 -11 -7 3 -59 26 -114 51 l-101 45 -129 -28 c-71 -16 -158 -34
-194 -40 -181 -30 -516 -93 -520 -97 -6 -7 238 7 280 15 59 12 386 14 375 3
-5 -6 -26 -12 -45 -14 -19 -3 56 -5 166 -6 171 -1 203 1 208 13 4 13 -9 15
-82 15 -56 0 -82 4 -72 10 9 4 36 7 60 5 25 -1 65 -3 90 -4 34 -1 41 -4 32
-13 -19 -19 -14 -26 16 -30 21 -2 26 -8 24 -24 -3 -26 30 -33 158 -35 l85 -1
-67 -18 c-86 -23 -188 -82 -188 -109 0 -7 -7 -19 -15 -27 -8 -9 -15 -24 -15
-35 0 -16 7 -19 54 -19 104 0 74 -25 -64 -56 -81 -18 -213 -74 -245 -104 -23
-21 -80 -46 -70 -30 12 20 -16 9 -40 -15 -14 -13 -25 -22 -25 -20 0 12 44 81
59 91 36 27 0 21 -114 -17 -65 -22 -122 -42 -125 -46 -3 -3 18 -3 45 1 28 4
65 9 84 12 19 3 41 10 48 16 10 8 12 8 8 -3 -7 -18 -55 -53 -55 -41 0 9 -50 0
-163 -27 -46 -11 -107 -51 -107 -70 0 -8 -6 -11 -15 -7 -8 3 -15 2 -15 -2 0
-5 -12 -13 -27 -20 -26 -11 -26 -11 12 -6 69 8 73 -12 6 -26 -34 -7 -61 -17
-61 -21 0 -5 -3 -8 -7 -8 -17 3 -36 -1 -31 -6 5 -5 152 17 193 30 11 3 7 -1
-10 -9 -16 -8 -43 -18 -60 -23 -30 -7 -30 -7 10 -11 22 -2 73 2 113 8 41 6 76
9 79 6 3 -3 -6 -21 -21 -40 -33 -43 -33 -47 2 -42 310 49 443 68 448 63 6 -5
-19 -164 -32 -209 -3 -10 -35 -28 -77 -44 -39 -15 -66 -29 -59 -32 16 -5 5
-22 -14 -22 -8 0 -12 5 -9 10 3 6 4 10 1 10 -13 0 -62 -26 -68 -36 -5 -7 -17
-10 -28 -7 -11 3 -20 0 -20 -6 0 -13 96 -11 116 1 6 4 27 8 47 10 21 1 37 5
37 8 0 3 21 6 48 7 44 1 42 0 -38 -22 -47 -13 -119 -31 -160 -39 -77 -17 -90
-19 -200 -36 -85 -14 -452 -138 -411 -139 8 -1 85 13 173 31 112 23 157 35
154 44 -3 9 4 11 28 7 44 -7 268 36 259 50 -4 7 4 8 24 4 23 -4 37 -1 54 14
13 11 30 17 41 13 10 -3 18 -1 18 5 0 5 39 22 87 38 49 15 91 32 94 37 4 4 15
3 25 -3 18 -10 18 -10 -2 -11 -12 0 -27 -7 -34 -15 -7 -8 -20 -15 -29 -16 -9
-1 -5 -4 9 -9 21 -6 16 -9 -38 -21 -49 -10 -64 -18 -67 -34 -28 -127 -93 -505
-91 -520 2 -11 9 -19 15 -17 6 1 11 -4 11 -10 1 -40 12 -40 261 12 134 28 251
53 260 55 16 5 41 119 135 625 14 74 27 147 30 161 4 22 13 28 60 38 30 7 52
16 49 21 -3 5 20 16 51 25 31 9 78 31 105 49 63 44 122 57 244 54 55 -1 116 1
135 6 31 8 33 7 21 -8 -12 -14 -11 -16 6 -16 25 0 41 53 78 255 14 77 32 173
41 213 9 40 15 75 12 77 -4 4 -298 -58 -469 -99 -59 -14 -129 -28 -158 -32
l-51 -7 0 35 c0 28 -5 35 -30 45 -21 8 -28 16 -24 27 3 9 12 16 20 16 15 0 59
71 69 112 8 32 -3 29 215 73 96 19 218 49 270 65 53 17 102 30 110 30 7 0 62
12 121 26 l107 25 18 97 c9 53 31 172 49 265 27 145 30 167 16 166 -9 0 -65
-14 -126 -30z m-991 -555 c17 -6 22 -24 8 -24 -5 0 -17 7 -28 15 -19 15 -8 20
20 9z m49 -77 c-7 -11 -23 2 -23 19 0 12 2 12 14 2 8 -7 12 -16 9 -21z m-333
-77 c0 -5 -4 -10 -10 -10 -5 0 -10 5 -10 10 0 6 5 10 10 10 6 0 10 -4 10 -10z
m323 -57 c-7 -2 -19 -2 -25 0 -7 3 -2 5 12 5 14 0 19 -2 13 -5z m-366 -319
c-3 -3 -12 -4 -19 -1 -8 3 -5 6 6 6 11 1 17 -2 13 -5z m119 -138 c148 -51 268
-96 277 -105 6 -6 -39 -13 -235 -36 -16 -2 -28 0 -28 5 0 4 -9 6 -20 3 -12 -3
-20 0 -20 7 0 6 9 14 20 17 31 8 24 26 -7 19 -21 -5 -24 -4 -13 4 13 8 9 15
-5 8 -11 -7 -36 44 -30 62 5 15 2 20 -12 20 -15 0 -16 -2 -3 -10 12 -8 10 -10
-10 -10 -15 0 -30 -4 -35 -8 -14 -12 -120 7 -108 19 10 10 89 36 114 38 8 1
60 -14 115 -33z m-91 -36 c3 -5 1 -10 -4 -10 -6 0 -11 5 -11 10 0 6 2 10 4 10
3 0 8 -4 11 -10z m-571 -74 c-3 -9 -10 -16 -15 -16 -6 0 -5 9 1 21 13 24 24
20 14 -5z m476 -56 c0 -5 -2 -10 -4 -10 -3 0 -8 5 -11 10 -3 6 -1 10 4 10 6 0
11 -4 11 -10z m34 -335 c11 -8 15 -15 10 -15 -6 0 -19 7 -30 15 -10 8 -14 14
-9 14 6 0 19 -6 29 -14z"/>
<path d="M935 2275 c-49 -19 -55 -24 -35 -27 15 -2 -11 -10 -63 -21 -49 -10
-148 -39 -220 -66 -73 -26 -156 -56 -184 -66 -29 -11 -51 -20 -49 -22 2 -2 37
3 77 11 41 8 222 41 403 73 278 48 323 59 295 66 -19 5 -28 12 -21 14 23 9 1
23 -26 17 -36 -9 -37 -11 -21 -31 12 -15 12 -16 -1 -8 -8 4 -21 13 -29 19 -8
6 -39 12 -70 13 -73 2 -74 3 -22 17 25 6 46 17 49 24 5 17 -14 14 -83 -13z"/>
</g>
</svg>
